<!-- <svg width="217" height="46" viewBox="0 0 217 46" fill="none" xmlns="http://www.w3.org/2000/svg">
<path d="M22.9997 0C35.7026 0 45.9997 10.2971 45.9997 23V39.1C45.9997 40.93 45.2728 42.685 43.9788 43.979C42.6848 45.273 40.9297 46 39.0997 46H24.1497V35.9099C24.1497 33.6076 24.29 31.2225 25.4975 29.2629C26.362 27.8586 27.5185 26.6566 28.8884 25.7385C30.2583 24.8204 31.8096 24.2077 33.4371 23.9419L33.8776 23.8706C34.0592 23.8085 34.2168 23.6912 34.3284 23.5351C34.44 23.379 34.5 23.1919 34.5 23C34.5 22.8081 34.44 22.621 34.3284 22.4649C34.2168 22.3088 34.0592 22.1915 33.8776 22.1294L33.4371 22.0581C31.0591 21.6697 28.8632 20.5441 27.1594 18.8403C25.4556 17.1365 24.3301 14.9406 23.9416 12.5626L23.8703 12.1222C23.8082 11.9406 23.6909 11.7829 23.5348 11.6713C23.3787 11.5597 23.1916 11.4997 22.9997 11.4997C22.8078 11.4997 22.6208 11.5597 22.4647 11.6713C22.3086 11.7829 22.1913 11.9406 22.1292 12.1222L22.0579 12.5626C21.7922 14.1902 21.1795 15.7415 20.2614 17.1114C19.3433 18.4814 18.1412 19.6378 16.7368 20.5022C14.7772 21.7097 12.3921 21.85 10.0898 21.85H0.0273438C0.628794 9.68185 10.6832 0 22.9997 0Z" fill="#5F6FFF"/>
<path d="M0 24.15H10.0901C12.3924 24.15 14.7775 24.2903 16.7371 25.4978C18.2689 26.4417 19.5583 27.7311 20.5022 29.2629C21.7097 31.2225 21.85 33.6076 21.85 35.9099V46H6.9C5.07001 46 3.31496 45.273 2.02096 43.979C0.726962 42.685 0 40.93 0 39.1L0 24.15ZM46 2.3C46 2.91 45.7577 3.49501 45.3263 3.92635C44.895 4.35768 44.31 4.6 43.7 4.6C43.09 4.6 42.505 4.35768 42.0737 3.92635C41.6423 3.49501 41.4 2.91 41.4 2.3C41.4 1.69 41.6423 1.10499 42.0737 0.673654C42.505 0.242321 43.09 0 43.7 0C44.31 0 44.895 0.242321 45.3263 0.673654C45.7577 1.10499 46 1.69 46 2.3Z" fill="#5F6FFF"/>
<path d="M62.848 28.126V24.352H68.39C69.1153 24.352 69.7727 24.2047 70.362 23.91C70.9513 23.6153 71.416 23.196 71.756 22.652C72.096 22.0853 72.266 21.4053 72.266 20.612C72.266 19.8413 72.096 19.1727 71.756 18.606C71.416 18.0393 70.9513 17.6087 70.362 17.314C69.7727 17.0193 69.1153 16.872 68.39 16.872H62.848V13.098H68.866C70.3847 13.098 71.7447 13.404 72.946 14.016C74.17 14.628 75.1333 15.5007 75.836 16.634C76.5387 17.7447 76.89 19.0707 76.89 20.612C76.89 22.1533 76.5387 23.4907 75.836 24.624C75.1333 25.7347 74.17 26.596 72.946 27.208C71.7447 27.82 70.3847 28.126 68.866 28.126H62.848ZM59.448 37V13.098H64.072V37H59.448ZM79.9232 37V20.578H84.3772V37H79.9232ZM84.3772 27.922L82.6432 26.766C82.8472 24.7487 83.4365 23.162 84.4112 22.006C85.3858 20.8273 86.7912 20.238 88.6272 20.238C89.4205 20.238 90.1345 20.374 90.7692 20.646C91.4038 20.8953 91.9818 21.3147 92.5032 21.904L89.7152 25.1C89.4658 24.828 89.1598 24.624 88.7972 24.488C88.4572 24.352 88.0605 24.284 87.6072 24.284C86.6552 24.284 85.8732 24.59 85.2612 25.202C84.6718 25.7913 84.3772 26.698 84.3772 27.922ZM101.457 37.34C99.7342 37.34 98.2042 36.9773 96.8669 36.252C95.5295 35.504 94.4642 34.484 93.6709 33.192C92.9002 31.9 92.5149 30.4267 92.5149 28.772C92.5149 27.14 92.8889 25.6893 93.6369 24.42C94.4075 23.128 95.4502 22.108 96.7649 21.36C98.0795 20.5893 99.5415 20.204 101.151 20.204C102.738 20.204 104.132 20.5667 105.333 21.292C106.557 21.9947 107.509 22.9693 108.189 24.216C108.892 25.44 109.243 26.834 109.243 28.398C109.243 28.6927 109.22 28.9987 109.175 29.316C109.152 29.6107 109.096 29.9507 109.005 30.336L95.2009 30.37V27.038L106.931 27.004L105.129 28.398C105.084 27.4233 104.902 26.6073 104.585 25.95C104.29 25.2927 103.848 24.794 103.259 24.454C102.692 24.0913 101.99 23.91 101.151 23.91C100.267 23.91 99.4962 24.114 98.8389 24.522C98.1815 24.9073 97.6715 25.4627 97.3089 26.188C96.9689 26.8907 96.7989 27.7293 96.7989 28.704C96.7989 29.7013 96.9802 30.574 97.3429 31.322C97.7282 32.0473 98.2722 32.614 98.9749 33.022C99.6775 33.4073 100.494 33.6 101.423 33.6C102.262 33.6 103.021 33.464 103.701 33.192C104.381 32.8973 104.97 32.4667 105.469 31.9L108.087 34.518C107.294 35.4473 106.319 36.15 105.163 36.626C104.03 37.102 102.794 37.34 101.457 37.34ZM117.641 37.374C116.712 37.374 115.794 37.2493 114.887 37C114.003 36.7507 113.187 36.4107 112.439 35.98C111.691 35.5267 111.045 34.9827 110.501 34.348L113.153 31.662C113.72 32.2967 114.377 32.7727 115.125 33.09C115.873 33.4073 116.701 33.566 117.607 33.566C118.333 33.566 118.877 33.464 119.239 33.26C119.625 33.056 119.817 32.75 119.817 32.342C119.817 31.8887 119.613 31.5373 119.205 31.288C118.82 31.0387 118.31 30.8347 117.675 30.676C117.041 30.4947 116.372 30.302 115.669 30.098C114.989 29.8713 114.332 29.588 113.697 29.248C113.063 28.8853 112.541 28.398 112.133 27.786C111.748 27.1513 111.555 26.3353 111.555 25.338C111.555 24.2953 111.805 23.3887 112.303 22.618C112.825 21.8473 113.561 21.2467 114.513 20.816C115.465 20.3853 116.587 20.17 117.879 20.17C119.239 20.17 120.463 20.408 121.551 20.884C122.662 21.36 123.58 22.074 124.305 23.026L121.619 25.712C121.121 25.1 120.554 24.658 119.919 24.386C119.307 24.114 118.639 23.978 117.913 23.978C117.256 23.978 116.746 24.08 116.383 24.284C116.043 24.488 115.873 24.7713 115.873 25.134C115.873 25.542 116.066 25.8593 116.451 26.086C116.859 26.3127 117.381 26.5167 118.015 26.698C118.65 26.8567 119.307 27.0493 119.987 27.276C120.69 27.48 121.347 27.7747 121.959 28.16C122.594 28.5453 123.104 29.0553 123.489 29.69C123.897 30.3247 124.101 31.1407 124.101 32.138C124.101 33.7473 123.523 35.028 122.367 35.98C121.211 36.9093 119.636 37.374 117.641 37.374ZM134.857 37.34C133.179 37.34 131.672 36.966 130.335 36.218C128.997 35.47 127.943 34.45 127.173 33.158C126.402 31.866 126.017 30.4153 126.017 28.806C126.017 27.174 126.402 25.712 127.173 24.42C127.943 23.128 128.997 22.108 130.335 21.36C131.695 20.5893 133.202 20.204 134.857 20.204C136.149 20.204 137.339 20.442 138.427 20.918C139.515 21.394 140.455 22.074 141.249 22.958L138.393 25.848C137.962 25.372 137.441 25.0093 136.829 24.76C136.239 24.5107 135.582 24.386 134.857 24.386C134.041 24.386 133.304 24.5787 132.647 24.964C132.012 25.3267 131.502 25.8367 131.117 26.494C130.754 27.1287 130.573 27.888 130.573 28.772C130.573 29.6333 130.754 30.404 131.117 31.084C131.502 31.7413 132.012 32.2627 132.647 32.648C133.304 33.0107 134.041 33.192 134.857 33.192C135.605 33.192 136.273 33.0673 136.863 32.818C137.475 32.546 137.996 32.1607 138.427 31.662L141.317 34.552C140.478 35.4587 139.515 36.15 138.427 36.626C137.339 37.102 136.149 37.34 134.857 37.34ZM143.839 37V20.578H148.293V37H143.839ZM148.293 27.922L146.559 26.766C146.763 24.7487 147.353 23.162 148.327 22.006C149.302 20.8273 150.707 20.238 152.543 20.238C153.337 20.238 154.051 20.374 154.685 20.646C155.32 20.8953 155.898 21.3147 156.419 21.904L153.631 25.1C153.382 24.828 153.076 24.624 152.713 24.488C152.373 24.352 151.977 24.284 151.523 24.284C150.571 24.284 149.789 24.59 149.177 25.202C148.588 25.7913 148.293 26.698 148.293 27.922ZM157.984 37V20.578H162.472V37H157.984ZM160.228 17.926C159.502 17.926 158.902 17.688 158.426 17.212C157.95 16.7133 157.712 16.1013 157.712 15.376C157.712 14.6733 157.95 14.0727 158.426 13.574C158.902 13.0753 159.502 12.826 160.228 12.826C160.976 12.826 161.576 13.0753 162.03 13.574C162.506 14.0727 162.744 14.6733 162.744 15.376C162.744 16.1013 162.506 16.7133 162.03 17.212C161.576 17.688 160.976 17.926 160.228 17.926ZM175.529 37.34C174.351 37.34 173.285 37.102 172.333 36.626C171.381 36.1273 170.622 35.4587 170.055 34.62C169.489 33.7813 169.183 32.818 169.137 31.73V25.916C169.183 24.828 169.489 23.8647 170.055 23.026C170.645 22.1647 171.404 21.4847 172.333 20.986C173.285 20.4873 174.351 20.238 175.529 20.238C177.048 20.238 178.408 20.612 179.609 21.36C180.811 22.108 181.751 23.128 182.431 24.42C183.134 25.712 183.485 27.174 183.485 28.806C183.485 30.4153 183.134 31.866 182.431 33.158C181.751 34.45 180.811 35.47 179.609 36.218C178.408 36.966 177.048 37.34 175.529 37.34ZM174.747 33.226C175.563 33.226 176.289 33.0447 176.923 32.682C177.558 32.2967 178.045 31.7753 178.385 31.118C178.748 30.438 178.929 29.656 178.929 28.772C178.929 27.9107 178.748 27.1513 178.385 26.494C178.045 25.814 177.558 25.2927 176.923 24.93C176.289 24.5447 175.563 24.352 174.747 24.352C173.954 24.352 173.24 24.5447 172.605 24.93C171.971 25.2927 171.472 25.814 171.109 26.494C170.769 27.1513 170.599 27.9107 170.599 28.772C170.599 29.656 170.769 30.438 171.109 31.118C171.472 31.7753 171.959 32.2967 172.571 32.682C173.206 33.0447 173.931 33.226 174.747 33.226ZM166.417 43.868V20.578H170.871V24.896L170.123 28.874L170.837 32.852V43.868H166.417ZM188.421 37V13.744H192.875V37H188.421ZM184.579 24.488V20.578H196.717V24.488H184.579ZM206.542 37.34C204.887 37.34 203.391 36.966 202.054 36.218C200.739 35.4473 199.685 34.416 198.892 33.124C198.121 31.8093 197.736 30.3473 197.736 28.738C197.736 27.1287 198.121 25.6893 198.892 24.42C199.662 23.128 200.716 22.108 202.054 21.36C203.391 20.5893 204.876 20.204 206.508 20.204C208.185 20.204 209.681 20.5893 210.996 21.36C212.333 22.108 213.387 23.128 214.158 24.42C214.928 25.6893 215.314 27.1287 215.314 28.738C215.314 30.3473 214.928 31.8093 214.158 33.124C213.387 34.416 212.333 35.4473 210.996 36.218C209.681 36.966 208.196 37.34 206.542 37.34ZM206.508 33.192C207.346 33.192 208.083 33.0107 208.718 32.648C209.375 32.2627 209.874 31.7413 210.214 31.084C210.576 30.404 210.758 29.6333 210.758 28.772C210.758 27.9107 210.576 27.1513 210.214 26.494C209.851 25.8367 209.352 25.3267 208.718 24.964C208.083 24.5787 207.346 24.386 206.508 24.386C205.692 24.386 204.966 24.5787 204.332 24.964C203.697 25.3267 203.198 25.8367 202.836 26.494C202.473 27.1513 202.292 27.9107 202.292 28.772C202.292 29.6333 202.473 30.404 202.836 31.084C203.198 31.7413 203.697 32.2627 204.332 32.648C204.966 33.0107 205.692 33.192 206.508 33.192Z" fill="#000B6D"/>
</svg> -->

<svg version="1.1" xmlns="http://www.w3.org/2000/svg" width="416" height="146">
<path d="M0 0 C137.28 0 274.56 0 416 0 C416 48.18 416 96.36 416 146 C278.72 146 141.44 146 0 146 C0 97.82 0 49.64 0 0 Z " fill="#FDFDFE" transform="translate(0,0)"/>
<path d="M0 0 C3.55578166 2.79048166 6.79733176 5.81433708 10 9 C10.57363281 9.55945312 11.14726563 10.11890625 11.73828125 10.6953125 C12.84043988 11.78194777 13.92366153 12.88778358 15 14 C18.00866351 12.66498697 19.91659458 11.23730696 22.125 8.8125 C29.43820652 1.29483824 37.39649561 -4.17733821 48.125 -4.5 C56.57047468 -4.33629068 63.0879279 -1.42621798 69.421875 4.12109375 C75.90209427 10.94424433 78.10417898 16.53191082 78.4375 25.875 C78.25693401 32.38926538 77.31567765 37.37617105 74 43 C73.47148438 43.93585937 72.94296875 44.87171875 72.3984375 45.8359375 C69.73948858 49.61778916 67.4693111 52.53329172 62.7265625 53.4296875 C57.11767427 53.86114044 51.59250674 53.51203012 46 53 C45.01 51.02 44.02 49.04 43 47 C42.01 47 41.02 47 40 47 C36.7 53.27 33.4 59.54 30 66 C28.515 65.505 28.515 65.505 27 65 C26 63 25 61 24 59 C22.515 58.505 22.515 58.505 21 58 C20.690625 58.94875 20.38125 59.8975 20.0625 60.875 C19 64 19 64 18 66 C14.34299449 65.44425749 14.34299449 65.44425749 12.82739258 63.48120117 C12.36562622 62.52177612 12.36562622 62.52177612 11.89453125 61.54296875 C11.37922852 60.49206055 11.37922852 60.49206055 10.85351562 59.41992188 C10.50998047 58.68322266 10.16644531 57.94652344 9.8125 57.1875 C9.45736328 56.46240234 9.10222656 55.73730469 8.73632812 54.99023438 C7.13864835 51.67664046 5.8055141 48.60256305 5 45 C2.99131323 46.81738327 1.97645672 48.05583122 0.90625 50.59375 C-1 53 -1 53 -4.79296875 53.48828125 C-6.25860885 53.45512197 -7.72384139 53.39558979 -9.1875 53.3125 C-9.93708984 53.28994141 -10.68667969 53.26738281 -11.45898438 53.24414062 C-13.3068447 53.18529157 -15.15367667 53.09560938 -17 53 C-16.67 51.68 -16.34 50.36 -16 49 C-15.20335938 49.05542969 -14.40671875 49.11085937 -13.5859375 49.16796875 C-10.10162042 49.18916289 -7.33751796 49.03578144 -4 48 C-1.77489631 45.27757063 -0.524452 42.71020173 0.81640625 39.46875 C1.40228516 38.24671875 1.40228516 38.24671875 2 37 C2.99 36.67 3.98 36.34 5 36 C13 52 13 52 13.93408203 54.18066406 C14.93303012 56.3436134 14.93303012 56.3436134 18 57 C18.309375 56.05125 18.61875 55.1025 18.9375 54.125 C20 51 20 51 21 49 C22.8125 49.125 22.8125 49.125 25 50 C26.75 53.0625 26.75 53.0625 28 56 C28.66 56 29.32 56 30 56 C33.3 49.73 36.6 43.46 40 37 C44 38 44 38 45.484375 40.28515625 C45.90203125 41.20167969 46.3196875 42.11820313 46.75 43.0625 C47.17796875 43.98160156 47.6059375 44.90070312 48.046875 45.84765625 C48.36140625 46.55792969 48.6759375 47.26820312 49 48 C57.51735795 49.06619691 57.51735795 49.06619691 65.3828125 46.5 C67.24800865 44.43294279 68.64312909 42.42896645 70 40 C70.35578125 39.37609375 70.7115625 38.7521875 71.078125 38.109375 C74.24333304 31.26101579 74.15806354 22.6528035 71.8125 15.5625 C68.10077424 8.26703902 61.6912538 3.6161491 54 1 C46.53140194 0.11406975 40.15123905 0.49469797 34 5 C29.24395809 8.91630326 24.82947055 13.06776762 20.6875 17.625 C18 20 18 20 15.75 20.07421875 C11.60621768 18.45555378 9.27101022 15.42744435 6.3125 12.1875 C-0.66156074 4.92486371 -6.22560195 1.08414044 -16.5 0.4375 C-23.25609608 0.72418017 -28.80223735 3.15979309 -33.8515625 7.64453125 C-39.64212804 13.96280843 -41.31488131 20.22037296 -41.59375 28.64453125 C-39.49654073 40.4965231 -30.74622731 47.88010755 -22.52734375 55.890625 C-21.19761535 57.20591895 -19.86914993 58.52249082 -18.54188538 59.840271 C-15.06393357 63.28797305 -11.57208858 66.72122324 -8.07611084 70.15063477 C-2.47498705 75.64897244 3.10651956 81.16716244 8.68426323 86.68920135 C10.62677752 88.60765963 12.57641129 90.51864573 14.52711487 92.42877197 C15.72408835 93.60888611 16.92087076 94.78919408 18.11743164 95.96972656 C18.65623962 96.49348877 19.19504761 97.01725098 19.75018311 97.55688477 C25.48284215 103.23853814 29.1002552 108.43458888 29.375 116.6875 C29.30775292 123.64757255 27.30194178 127.62026378 22.5078125 132.52734375 C17.310856 137.17229191 12.52040244 138.63633852 5.66015625 138.4140625 C-1.053222 137.36910201 -5.80881851 133.41844463 -10.25 128.484375 C-16.37539762 121.09798122 -16.37539762 121.09798122 -24.76171875 117.26953125 C-27.15279492 117.37879403 -29.54204652 117.55637496 -31.921875 117.8125 C-35.20618978 118.01255978 -36.49617347 117.74679515 -39.1875 115.9375 C-42.89931598 112.58277011 -44.84244849 108.82115664 -45.125 103.76171875 C-44.81256866 97.95244856 -43.1290597 95.03074876 -39 91 C-34.53507866 88.02338577 -30.23557916 88.50796319 -25 89 C-20.2655684 90.91391916 -17.27315607 94.45368786 -15 99 C-14.74798444 104.12431637 -15.02424526 107.25818863 -17 112 C-16.55549593 115.21942178 -15.51468257 116.86199096 -13.234375 119.12890625 C-12.67363281 119.68900391 -12.11289062 120.24910156 -11.53515625 120.82617188 C-10.94605469 121.39916016 -10.35695312 121.97214844 -9.75 122.5625 C-9.17636719 123.13935547 -8.60273437 123.71621094 -8.01171875 124.31054688 C-3.07007389 129.19028047 0.69690627 132.42818135 7.9375 132.4375 C13.1001867 132.29180455 16.14322241 131.66393871 20 128 C23.8619002 123.73158399 24.47365945 120.29190441 24.62890625 114.7578125 C22.50622629 105.44966309 14.26498083 98.93446879 7.69761658 92.53325272 C5.74712445 90.63077703 3.80742908 88.71786315 1.87023926 86.80184937 C-3.63507865 81.36034688 -9.15865454 75.93755446 -14.68994141 70.52246094 C-18.08453613 67.19772828 -21.46655938 63.86060973 -24.84156799 60.51600266 C-26.12206017 59.25217403 -27.40733264 57.99316821 -28.69761658 56.73933792 C-37.81712095 47.87642549 -45.90030767 39.49230833 -46.4375 26.0625 C-46.35343348 17.68386976 -43.56487675 11.21996093 -38.171875 4.8359375 C-27.72344784 -5.14528357 -12.56903214 -7.53741003 0 0 Z " fill="#5C79FF" transform="translate(49,7)"/>
<path d="M0 0 C2.97 0 5.94 0 9 0 C11.34765625 2.3515625 11.34765625 2.3515625 13.0625 5.625 C13.37703125 6.19951904 13.6915625 6.77403809 14.015625 7.3659668 C14.68423727 8.59037953 15.33903378 9.82242164 15.98095703 11.06103516 C17.35211331 13.66997698 18.82985723 16.21164489 20.31225586 18.75854492 C21.89437592 21.49449067 23.44395755 24.24913924 25 27 C25.33 18.09 25.66 9.18 26 0 C28.64 0 31.28 0 34 0 C34 13.86 34 27.72 34 42 C25 42 25 42 22.72485352 39.86035156 C22.19819092 38.8803418 21.67152832 37.90033203 21.12890625 36.890625 C20.53529297 35.82585937 19.94167969 34.76109375 19.33007812 33.6640625 C18.74677734 32.53742188 18.16347656 31.41078125 17.5625 30.25 C16.95212891 29.13882813 16.34175781 28.02765625 15.71289062 26.8828125 C13.38862097 22.62891214 11.16781879 18.33563758 9 14 C8.67 23.24 8.34 32.48 8 42 C5.36 42 2.72 42 0 42 C0 28.14 0 14.28 0 0 Z " fill="#5B5B5B" transform="translate(265,67)"/>
<path d="M0 0 C9.75656971 -0.84976575 16.87602891 0.34803725 25 6 C31.59154551 11.77291808 35.48251084 17.53033611 36.30859375 26.26171875 C36.58438115 33.99212313 35.95664963 40.2889976 32 47 C31.47148438 47.93585937 30.94296875 48.87171875 30.3984375 49.8359375 C27.73948858 53.61778916 25.4693111 56.53329172 20.7265625 57.4296875 C15.11767427 57.86114044 9.59250674 57.51203012 4 57 C3.01 55.02 2.02 53.04 1 51 C0.01 51 -0.98 51 -2 51 C-5.3 57.27 -8.6 63.54 -12 70 C-12.99 69.67 -13.98 69.34 -15 69 C-16 67 -17 65 -18 63 C-18.99 62.67 -19.98 62.34 -21 62 C-21.309375 62.94875 -21.61875 63.8975 -21.9375 64.875 C-23 68 -23 68 -24 70 C-27.65700551 69.44425749 -27.65700551 69.44425749 -29.17260742 67.48120117 C-29.48045166 66.84158447 -29.7882959 66.20196777 -30.10546875 65.54296875 C-30.44900391 64.84236328 -30.79253906 64.14175781 -31.14648438 63.41992188 C-31.49001953 62.68322266 -31.83355469 61.94652344 -32.1875 61.1875 C-32.54263672 60.46240234 -32.89777344 59.73730469 -33.26367188 58.99023438 C-34.86135165 55.67664046 -36.1944859 52.60256305 -37 49 C-39.00868677 50.81738327 -40.02354328 52.05583122 -41.09375 54.59375 C-43 57 -43 57 -46.79296875 57.48828125 C-48.25860885 57.45512197 -49.72384139 57.39558979 -51.1875 57.3125 C-51.93708984 57.28994141 -52.68667969 57.26738281 -53.45898438 57.24414062 C-55.3068447 57.18529157 -57.15367667 57.09560938 -59 57 C-58.67 55.68 -58.34 54.36 -58 53 C-57.20335937 53.05542969 -56.40671875 53.11085937 -55.5859375 53.16796875 C-52.10162042 53.18916289 -49.33751796 53.03578144 -46 52 C-43.77489631 49.27757063 -42.524452 46.71020173 -41.18359375 43.46875 C-40.59771484 42.24671875 -40.59771484 42.24671875 -40 41 C-38.515 40.505 -38.515 40.505 -37 40 C-29 56 -29 56 -28.06591797 58.18066406 C-27.06696988 60.3436134 -27.06696988 60.3436134 -24 61 C-23.690625 60.05125 -23.38125 59.1025 -23.0625 58.125 C-22 55 -22 55 -21 53 C-19.1875 53.125 -19.1875 53.125 -17 54 C-15.25 57.0625 -15.25 57.0625 -14 60 C-13.34 60 -12.68 60 -12 60 C-8.7 53.73 -5.4 47.46 -2 41 C2 42 2 42 3.484375 44.28515625 C3.90203125 45.20167969 4.3196875 46.11820313 4.75 47.0625 C5.17796875 47.98160156 5.6059375 48.90070312 6.046875 49.84765625 C6.36140625 50.55792969 6.6759375 51.26820312 7 52 C15.51735795 53.06619691 15.51735795 53.06619691 23.3828125 50.5 C25.24800865 48.43294279 26.64312909 46.42896645 28 44 C28.35578125 43.37609375 28.7115625 42.7521875 29.078125 42.109375 C32.24333304 35.26101579 32.15806354 26.6528035 29.8125 19.5625 C26.48133221 13.01503227 21.29586509 9.15937801 14.80078125 5.89453125 C11.2325809 4.75489683 7.88709176 4.78295274 4.1875 4.875 C3.49462891 4.88402344 2.80175781 4.89304687 2.08789062 4.90234375 C0.39177605 4.92573843 -1.30415871 4.96160359 -3 5 C-3 4.01 -3 3.02 -3 2 C-2.01 2 -1.02 2 0 2 C0 1.34 0 0.68 0 0 Z " fill="#5A77FF" transform="translate(91,3)"/>
<path d="M0 0 C4.7344316 1.91391916 7.72684393 5.45368786 10 10 C10.25201556 15.12431637 9.97575474 18.25818863 8 23 C8.44450407 26.21942178 9.48531743 27.86199096 11.765625 30.12890625 C12.32636719 30.68900391 12.88710938 31.24910156 13.46484375 31.82617188 C14.05394531 32.39916016 14.64304688 32.97214844 15.25 33.5625 C15.82363281 34.13935547 16.39726563 34.71621094 16.98828125 35.31054688 C21.67461719 39.93817018 25.50579966 43.23371998 32.3125 43.6875 C33.63701172 43.78611328 33.63701172 43.78611328 34.98828125 43.88671875 C35.65214844 43.92410156 36.31601562 43.96148437 37 44 C37 44.33 37 44.66 37 45 C34.36 45 31.72 45 29 45 C29 45.99 29 46.98 29 48 C31.97 48 34.94 48 38 48 C38 48.33 38 48.66 38 49 C31.20596461 49.7805913 26.51213131 48.97499703 20.75 45.265625 C18.50287361 43.41429929 16.684995 41.63411828 14.75 39.484375 C8.62460238 32.09798122 8.62460238 32.09798122 0.23828125 28.26953125 C-2.15279492 28.37879403 -4.54204652 28.55637496 -6.921875 28.8125 C-10.20618978 29.01255978 -11.49617347 28.74679515 -14.1875 26.9375 C-17.89931598 23.58277011 -19.84244849 19.82115664 -20.125 14.76171875 C-19.81256866 8.95244856 -18.1290597 6.03074876 -14 2 C-9.53507866 -0.97661423 -5.23557916 -0.49203681 0 0 Z " fill="#5B78FF" transform="translate(24,96)"/>
<path d="M0 0 C2.64 0 5.28 0 8 0 C8 13.86 8 27.72 8 42 C5.36 42 2.72 42 0 42 C0 36.39 0 30.78 0 25 C-5.61 25 -11.22 25 -17 25 C-17 30.61 -17 36.22 -17 42 C-19.64 42 -22.28 42 -25 42 C-25 28.47 -25 14.94 -25 1 C-22.69 1 -20.38 1 -18 1 C-18 6.61 -18 12.22 -18 18 C-12.06 18 -6.12 18 0 18 C0 12.06 0 6.12 0 0 Z " fill="#595959" transform="translate(113,67)"/>
<path d="M0 0 C3.41096395 1.30632662 4.59343689 2.39506551 6.6171875 5.40625 C8.55651815 10.44631836 8.32201176 15.02901974 8.1875 20.375 C8.16719727 21.90833984 8.16719727 21.90833984 8.14648438 23.47265625 C8.11130217 25.98232049 8.06207539 28.4908809 8 31 C5.36 31 2.72 31 0 31 C-0.33 30.34 -0.66 29.68 -1 29 C-1.99 29.66 -2.98 30.32 -4 31 C-8.80735077 31.63119415 -13.39508279 31.89576774 -17.6875 29.5 C-19.5406625 25.97016666 -19.86225371 22.83817358 -19 19 C-16.01169549 14.70431226 -12.95236493 13.27424677 -8.00390625 12.26953125 C-5.31714283 11.90815371 -2.70485061 11.86475747 0 12 C-0.66 10.35 -1.32 8.7 -2 7 C-4.64 7 -7.28 7 -10 7 C-10.33 7.99 -10.66 8.98 -11 10 C-13.31 10 -15.62 10 -18 10 C-17.70179167 6.42150008 -17.25754642 5.23773516 -14.5625 2.75 C-9.73222662 -0.54872329 -5.7533923 -0.49003657 0 0 Z " fill="#5B5B5B" transform="translate(181,78)"/>
<path d="M0 0 C3.22206935 1.45111579 5.39195231 2.8667276 7.75 5.51953125 C8.75 8.26953125 8.75 8.26953125 8.75 16.26953125 C1.49 16.26953125 -5.77 16.26953125 -13.25 16.26953125 C-11.70957252 21.0725716 -11.70957252 21.0725716 -9.25 23.26953125 C-5.79199641 23.68626332 -5.79199641 23.68626332 -2.25 23.26953125 C-1.755 22.77453125 -1.26 22.27953125 -0.75 21.76953125 C0.75 20.26953125 0.75 20.26953125 4.4375 20.08203125 C6.0771875 20.17484375 6.0771875 20.17484375 7.75 20.26953125 C7.45179167 23.84803117 7.00754642 25.03179609 4.3125 27.51953125 C-0.94527302 31.11020551 -5.99703806 31.11603695 -12.25 30.26953125 C-16.09627079 28.30351291 -18.38948799 25.61641962 -20.6875 22.01953125 C-21.8599071 16.28776323 -22.19868968 11.23988674 -19.625 5.89453125 C-13.86452821 -0.472306 -8.26777843 -2.68415723 0 0 Z " fill="#575757" transform="translate(326.25,78.73046875)"/>
<path d="M0 0 C3.22206935 1.45111579 5.39195231 2.8667276 7.75 5.51953125 C8.75 8.26953125 8.75 8.26953125 8.75 16.26953125 C1.49 16.26953125 -5.77 16.26953125 -13.25 16.26953125 C-11.70957252 21.0725716 -11.70957252 21.0725716 -9.25 23.26953125 C-5.79199641 23.68626332 -5.79199641 23.68626332 -2.25 23.26953125 C-1.755 22.77453125 -1.26 22.27953125 -0.75 21.76953125 C0.75 20.26953125 0.75 20.26953125 4.4375 20.08203125 C6.0771875 20.17484375 6.0771875 20.17484375 7.75 20.26953125 C7.45179167 23.84803117 7.00754642 25.03179609 4.3125 27.51953125 C-0.94527302 31.11020551 -5.99703806 31.11603695 -12.25 30.26953125 C-16.09627079 28.30351291 -18.38948799 25.61641962 -20.6875 22.01953125 C-21.8599071 16.28776323 -22.19868968 11.23988674 -19.625 5.89453125 C-13.86452821 -0.472306 -8.26777843 -2.68415723 0 0 Z " fill="#575757" transform="translate(148.25,78.73046875)"/>
<path d="M0 0 C2.64 0 5.28 0 8 0 C8.33 4.29 8.66 8.58 9 13 C9.99 12.34 10.98 11.68 12 11 C20.71698113 10.44654088 20.71698113 10.44654088 24 13 C26.64765034 16.70899118 27.36569431 19.20505486 27.29296875 23.73828125 C27.28330078 24.80498047 27.27363281 25.87167969 27.26367188 26.97070312 C27.23853516 28.07349609 27.21339844 29.17628906 27.1875 30.3125 C27.16719727 31.99569336 27.16719727 31.99569336 27.14648438 33.71289062 C27.1112138 36.47575229 27.06192235 39.23762829 27 42 C24.36 42 21.72 42 19 42 C18.97494385 41.30849854 18.9498877 40.61699707 18.92407227 39.90454102 C18.80847839 36.79032134 18.68558758 33.67643211 18.5625 30.5625 C18.52318359 29.47388672 18.48386719 28.38527344 18.44335938 27.26367188 C18.40146484 26.22919922 18.35957031 25.19472656 18.31640625 24.12890625 C18.27974854 23.17056885 18.24309082 22.21223145 18.20532227 21.22485352 C18.24165576 19.02861075 18.24165576 19.02861075 17 18 C14.04182893 17.74994614 14.04182893 17.74994614 11 18 C8.47871644 20.52128356 8.70646931 21.51239013 8.5859375 25.0078125 C8.52792969 26.48701172 8.52792969 26.48701172 8.46875 27.99609375 C8.42234375 29.54490234 8.42234375 29.54490234 8.375 31.125 C8.31699219 32.68541016 8.31699219 32.68541016 8.2578125 34.27734375 C8.16335234 36.85138311 8.07778786 39.42541155 8 42 C5.36 42 2.72 42 0 42 C0 28.14 0 14.28 0 0 Z " fill="#606060" transform="translate(232,67)"/>
<path d="M0 0 C2.89156519 1.5504772 5.16095669 3.26340314 7 6 C7 7.32 7 8.64 7 10 C4.1875 10.1875 4.1875 10.1875 1 10 C0.525625 9.505 0.05125 9.01 -0.4375 8.5 C-2.08339692 6.59216358 -2.08339692 6.59216358 -5.6875 6.8125 C-6.780625 6.874375 -7.87375 6.93625 -9 7 C-8.67 8.32 -8.34 9.64 -8 11 C-7.19175781 11.15855469 -6.38351562 11.31710938 -5.55078125 11.48046875 C4.28332777 13.62760232 4.28332777 13.62760232 7.3125 16.25 C9 19 9 19 9.0625 22.5625 C7.93569047 26.20806025 6.95999714 27.66788104 4 30 C-0.44019389 32.22009695 -6.18013867 31.52059182 -11 31 C-14.00198502 29.68935074 -14.8825107 28.64686163 -17 26 C-17.875 23.1875 -17.875 23.1875 -18 21 C-14.75 20.75 -14.75 20.75 -11 21 C-9.64631404 22.31266518 -8.31200404 23.64567325 -7 25 C-3.832168 25.33448259 -3.832168 25.33448259 -1 25 C-0.34 23.35 0.32 21.7 1 20 C0.11957031 19.84144531 -0.76085937 19.68289062 -1.66796875 19.51953125 C-12.35150443 17.37333818 -12.35150443 17.37333818 -15.3125 14.75 C-17.54795397 11.10703797 -17.82465214 9.19822908 -17 5 C-12.47471875 -0.74833024 -7.04009433 -1.45481718 0 0 Z " fill="#5A5A5A" transform="translate(358,78)"/>
<path d="M0 0 C2.31 0 4.62 0 7 0 C7 3.63 7 7.26 7 11 C8.98 11 10.96 11 13 11 C13 12.65 13 14.3 13 16 C11.02 16 9.04 16 7 16 C7.33 21.94 7.66 27.88 8 34 C9.65 34.33 11.3 34.66 13 35 C13 36.98 13 38.96 13 41 C11.39667209 41.08121924 9.79215974 41.13929134 8.1875 41.1875 C6.84751953 41.23970703 6.84751953 41.23970703 5.48046875 41.29296875 C3 41 3 41 1.36328125 39.80078125 C-0.46203214 37.38969393 -0.3450257 35.89648206 -0.29296875 32.89453125 C-0.28330078 31.91162109 -0.27363281 30.92871094 -0.26367188 29.91601562 C-0.23853516 28.89185547 -0.21339844 27.86769531 -0.1875 26.8125 C-0.17396484 25.77673828 -0.16042969 24.74097656 -0.14648438 23.67382812 C-0.11111389 21.11536301 -0.06175544 18.5579422 0 16 C-1.65 16 -3.3 16 -5 16 C-5 14.35 -5 12.7 -5 11 C-3.35 11 -1.7 11 0 11 C0 7.37 0 3.74 0 0 Z " fill="#555555" transform="translate(375,68)"/>
<path d="M0 0 C2.31 0 4.62 0 7 0 C7 3.63 7 7.26 7 11 C8.98 11 10.96 11 13 11 C13 12.65 13 14.3 13 16 C11.02 16 9.04 16 7 16 C7.33 21.94 7.66 27.88 8 34 C9.65 34.33 11.3 34.66 13 35 C13 36.98 13 38.96 13 41 C11.39667209 41.08121924 9.79215974 41.13929134 8.1875 41.1875 C6.84751953 41.23970703 6.84751953 41.23970703 5.48046875 41.29296875 C3 41 3 41 1.36328125 39.80078125 C-0.46203214 37.38969393 -0.3450257 35.89648206 -0.29296875 32.89453125 C-0.28330078 31.91162109 -0.27363281 30.92871094 -0.26367188 29.91601562 C-0.23853516 28.89185547 -0.21339844 27.86769531 -0.1875 26.8125 C-0.17396484 25.77673828 -0.16042969 24.74097656 -0.14648438 23.67382812 C-0.11111389 21.11536301 -0.06175544 18.5579422 0 16 C-1.65 16 -3.3 16 -5 16 C-5 14.35 -5 12.7 -5 11 C-3.35 11 -1.7 11 0 11 C0 7.37 0 3.74 0 0 Z " fill="#555555" transform="translate(214,68)"/>
<path d="M0 0 C2.95815333 1.25878865 4.44712095 2.10276721 6.12890625 4.83203125 C7.65537545 8.63109136 7.16246974 12.13427222 6 16 C3.5436322 18.93565908 1.80175198 20.60586675 -2 21.4375 C-5.69316277 21.66132805 -7.83077059 21.10801877 -10.9375 19.125 C-13.8625854 16.11127564 -14.21474934 14.29854579 -14.375 10.1875 C-14.31526314 6.43493911 -14.10210616 5.16468736 -12.0625 1.875 C-7.92595635 -0.65757774 -4.73194971 -0.79008961 0 0 Z " fill="#FBFBFF" transform="translate(23,100)"/>
<path d="M0 0 C2.31 0 4.62 0 7 0 C7.33 11.22 7.66 22.44 8 34 C9.32 34.33 10.64 34.66 12 35 C12 36.98 12 38.96 12 41 C10.56344146 41.08131463 9.1255517 41.13933559 7.6875 41.1875 C6.48673828 41.23970703 6.48673828 41.23970703 5.26171875 41.29296875 C2.43391944 40.9266735 1.75999647 40.19499886 0 38 C-0.26167679 35.05815259 -0.34873921 32.3326279 -0.29296875 29.39453125 C-0.28872391 28.55532639 -0.28447906 27.71612152 -0.28010559 26.85148621 C-0.26331464 24.17149755 -0.2256623 21.4922613 -0.1875 18.8125 C-0.17245367 16.99545357 -0.15876518 15.17839535 -0.14648438 13.36132812 C-0.11340982 8.90726224 -0.06162513 4.45375868 0 0 Z " fill="#565656" transform="translate(195,68)"/>
<path d="M0 0 C7.07858428 -0.47990402 7.07858428 -0.47990402 11 1.5625 C13 4 13 4 13.5625 7.5 C13 11 13 11 11.5625 13.4375 C7.66904791 15.81155615 4.51138518 15.2653756 0 15 C0 10.05 0 5.1 0 0 Z " fill="#637FFF" transform="translate(122,120)"/>
<path d="M0 0 C1.65 0 3.3 0 5 0 C5.99 2.64 6.98 5.28 8 8 C8.33 8 8.66 8 9 8 C9.66 5.36 10.32 2.72 11 0 C12.65 0 14.3 0 16 0 C16 5.28 16 10.56 16 16 C15.01 16 14.02 16 13 16 C12.67 14.02 12.34 12.04 12 10 C11.34 11.65 10.68 13.3 10 15 C8.68 15 7.36 15 6 15 C5.34 12.03 4.68 9.06 4 6 C3.67 9.3 3.34 12.6 3 16 C2.01 16 1.02 16 0 16 C0 10.72 0 5.44 0 0 Z " fill="#6883FF" transform="translate(87,120)"/>
<path d="M0 0 C4 1 4 1 5.265625 2.62890625 C6.17708333 4.41927083 7.08854167 6.20963542 8 8 C8.33 5.36 8.66 2.72 9 0 C10.32 0 11.64 0 13 0 C13 4.95 13 9.9 13 15 C11.35 15 9.7 15 8 15 C6.02 11.535 6.02 11.535 4 8 C3.67 10.64 3.34 13.28 3 16 C2.01 16 1.02 16 0 16 C0 10.72 0 5.44 0 0 Z " fill="#8FA3FF" transform="translate(239,120)"/>
<path d="M0 0 C1.32 0 2.64 0 4 0 C4.83719383 2.29032311 5.6698929 4.58210957 6.5 6.875 C6.73847656 7.52597656 6.97695312 8.17695313 7.22265625 8.84765625 C9 13.7734375 9 13.7734375 9 16 C7.68 16 6.36 16 5 16 C5 14.68 5 13.36 5 12 C2.02934491 12.34227572 2.02934491 12.34227572 -1 13 C-1.33 13.66 -1.66 14.32 -2 15 C-2.99 14.67 -3.98 14.34 -5 14 C-3.35 9.38 -1.7 4.76 0 0 Z " fill="#5875FF" transform="translate(168,120)"/>
<path d="M0 0 C3.125 0.1875 3.125 0.1875 6.125 2.1875 C6.125 3.1775 6.125 4.1675 6.125 5.1875 C5.135 5.1875 4.145 5.1875 3.125 5.1875 C2.795 4.5275 2.465 3.8675 2.125 3.1875 C1.135 3.1875 0.145 3.1875 -0.875 3.1875 C-0.875 3.8475 -0.875 4.5075 -0.875 5.1875 C0.259375 5.579375 1.39375 5.97125 2.5625 6.375 C6.125 8.1875 6.125 8.1875 7.25 10.6875 C7.125 13.1875 7.125 13.1875 6.0625 15 C3.27276246 16.70983914 1.33390425 16.58861303 -1.875 16.1875 C-3.75 14.8125 -3.75 14.8125 -4.875 13.1875 C-4.875 12.5275 -4.875 11.8675 -4.875 11.1875 C-0.42 12.1775 -0.42 12.1775 4.125 13.1875 C3.795 12.1975 3.465 11.2075 3.125 10.1875 C1.14251285 9.47043018 -0.85915349 8.80459587 -2.875 8.1875 C-3.535 7.5275 -4.195 6.8675 -4.875 6.1875 C-4.15346072 0.27087787 -4.15346072 0.27087787 0 0 Z " fill="#5E7BFF" transform="translate(285.875,119.8125)"/>
<path d="M0 0 C1.9375 1.375 1.9375 1.375 3 3 C3 3.66 3 4.32 3 5 C2.36191406 4.91621094 1.72382813 4.83242187 1.06640625 4.74609375 C0.24011719 4.64425781 -0.58617187 4.54242188 -1.4375 4.4375 C-2.26121094 4.33308594 -3.08492188 4.22867188 -3.93359375 4.12109375 C-4.95646484 4.06115234 -4.95646484 4.06115234 -6 4 C-7.34404775 5.11836224 -7.34404775 5.11836224 -7.125 8 C-7.34404775 10.88163776 -7.34404775 10.88163776 -6 12 C-2.79950343 12.17299981 -0.07045451 11.9097643 3 11 C2.4375 12.9375 2.4375 12.9375 1 15 C-2.3125 16.0625 -2.3125 16.0625 -6 16 C-8.9375 14 -8.9375 14 -11 11 C-11.63007693 7.00951279 -11.63021887 4.98314143 -9.4375 1.5625 C-6.09493717 -0.58016848 -3.89504791 -0.49573337 0 0 Z " fill="#5B78FF" transform="translate(274,120)"/>
<path d="M0 0 C1.9375 1.375 1.9375 1.375 3 3 C3 3.66 3 4.32 3 5 C2.36191406 4.91621094 1.72382813 4.83242187 1.06640625 4.74609375 C0.24011719 4.64425781 -0.58617187 4.54242188 -1.4375 4.4375 C-2.26121094 4.33308594 -3.08492187 4.22867188 -3.93359375 4.12109375 C-4.95646484 4.06115234 -4.95646484 4.06115234 -6 4 C-7.34404775 5.11836224 -7.34404775 5.11836224 -7.125 8 C-7.34404775 10.88163776 -7.34404775 10.88163776 -6 12 C-2.79950343 12.17299981 -0.07045451 11.9097643 3 11 C2.4375 12.9375 2.4375 12.9375 1 15 C-2.3125 16.0625 -2.3125 16.0625 -6 16 C-8.9375 14 -8.9375 14 -11 11 C-11.63007693 7.00951279 -11.63021887 4.98314143 -9.4375 1.5625 C-6.09493717 -0.58016848 -3.89504791 -0.49573337 0 0 Z " fill="#5B78FF" transform="translate(157,120)"/>
<path d="M0 0 C3.4375 0.5 3.4375 0.5 5.375 1.875 C6.4375 3.5 6.4375 3.5 6.4375 5.5 C5.79941406 5.41621094 5.16132813 5.33242187 4.50390625 5.24609375 C3.67761719 5.14425781 2.85132813 5.04242188 2 4.9375 C1.17628906 4.83308594 0.35257813 4.72867188 -0.49609375 4.62109375 C-1.51896484 4.56115234 -1.51896484 4.56115234 -2.5625 4.5 C-2.8925 4.83 -3.2225 5.16 -3.5625 5.5 C-3.27519945 7.83944736 -2.94313221 10.1739143 -2.5625 12.5 C0.63652639 12.58886184 3.36427456 12.41058531 6.4375 11.5 C5.875 13.4375 5.875 13.4375 4.4375 15.5 C1.125 16.5625 1.125 16.5625 -2.5625 16.5 C-5.99034786 14.09321321 -7.34844456 12.64162899 -8.125 8.5 C-7.13609973 3.22586522 -5.4249163 0.76139176 0 0 Z " fill="#607CFF" transform="translate(207.5625,119.5)"/>
<path d="M0 0 C3.3 0 6.6 0 10 0 C10 0.99 10 1.98 10 3 C7.69 3 5.38 3 3 3 C3 3.99 3 4.98 3 6 C4.98 6 6.96 6 9 6 C9 6.99 9 7.98 9 9 C7.02 9 5.04 9 3 9 C3 10.32 3 11.64 3 13 C5.31 13 7.62 13 10 13 C10 13.66 10 14.32 10 15 C6.7 15 3.4 15 0 15 C0 10.05 0 5.1 0 0 Z " fill="#5B78FF" transform="translate(108,120)"/>
<path d="M0 0 C0 0.99 0 1.98 0 3 C-1.60875 3.12375 -1.60875 3.12375 -3.25 3.25 C-6.93213805 3.74260965 -6.93213805 3.74260965 -9.375 5.5625 C-11.68785335 9.03178003 -11.72395554 11.8593331 -12 16 C-12.33 16 -12.66 16 -13 16 C-13.33 14.35 -13.66 12.7 -14 11 C-14.33 12.65 -14.66 14.3 -15 16 C-15.66 16 -16.32 16 -17 16 C-16.83556174 9.27298033 -15.85678509 5.74114735 -11 1 C-6.8204355 -1.78637633 -4.85331323 -0.79562512 0 0 Z " fill="#5876FF" transform="translate(21,97)"/>
<path d="M0 0 C0.3125 2.25 0.3125 2.25 0 5 C-2.49559734 7.6382029 -4.06556136 8.86961321 -7.6875 9.375 C-10 9 -10 9 -12 7 C-11.63318342 4.06546739 -11.13562754 3.13562754 -9 1 C-5.9262254 0.34600541 -3.14400906 0 0 0 Z " fill="#F4F4F4" transform="translate(181,95)"/>
<path d="M0 0 C2.4375 1.875 2.4375 1.875 4 4 C4 4.66 4 5.32 4 6 C-0.95 6 -5.9 6 -11 6 C-8.34483033 -0.63792418 -6.87649586 -0.59280137 0 0 Z " fill="#EFEFEF" transform="translate(324,84)"/>
<path d="M0 0 C2.4375 1.875 2.4375 1.875 4 4 C4 4.66 4 5.32 4 6 C-0.95 6 -5.9 6 -11 6 C-8.34483033 -0.63792418 -6.87649586 -0.59280137 0 0 Z " fill="#EFEFEF" transform="translate(146,84)"/>
<path d="M0 0 C0.99 0 1.98 0 3 0 C3 4.29 3 8.58 3 13 C5.31 13 7.62 13 10 13 C10 13.99 10 14.98 10 16 C6.7 16 3.4 16 0 16 C0 10.72 0 5.44 0 0 Z " fill="#6A85FF" transform="translate(218,120)"/>
<path d="M0 0 C0.99 0 1.98 0 3 0 C3 4.29 3 8.58 3 13 C5.31 13 7.62 13 10 13 C10 13.99 10 14.98 10 16 C8.52093108 16.02689216 7.04172517 16.04634621 5.5625 16.0625 C4.32693359 16.07990234 4.32693359 16.07990234 3.06640625 16.09765625 C1 16 1 16 0 15 C-0.07313567 12.46950598 -0.09247527 9.96695163 -0.0625 7.4375 C-0.05798828 6.72658203 -0.05347656 6.01566406 -0.04882812 5.28320312 C-0.03700864 3.52209987 -0.01907263 1.76103964 0 0 Z " fill="#6D87FF" transform="translate(180,120)"/>
<path d="M0 0 C7.75748934 -0.4798447 15.38300191 -0.62923052 22 4 C23.44121953 6.47444676 23.66458985 8.09311206 24 11 C22.39459341 10.21085079 20.79071984 9.41858235 19.1875 8.625 C18.29417969 8.18414062 17.40085937 7.74328125 16.48046875 7.2890625 C14 6 14 6 11 4 C11 3.01 11 2.02 11 1 C7.37 1 3.74 1 0 1 C0 0.67 0 0.34 0 0 Z " fill="#5775FF" transform="translate(27,3)"/>
<path d="M0 0 C1.65 0 3.3 0 5 0 C7 2 7 2 7.25 5 C7 8 7 8 5 10 C3.35 10 1.7 10 0 10 C0 6.7 0 3.4 0 0 Z " fill="#EBEEFF" transform="translate(125,123)"/>
<path d="M0 0 C4.29 0 8.58 0 13 0 C13.33 0.99 13.66 1.98 14 3 C13.20335938 3.06058594 12.40671875 3.12117187 11.5859375 3.18359375 C3.75667303 3.79667866 3.75667303 3.79667866 -4 5 C-3.34 4.67 -2.68 4.34 -2 4 C-1.34 2.68 -0.68 1.36 0 0 Z " fill="#4F6FFF" transform="translate(25,4)"/>
<path d="M0 0 C1.32 0 2.64 0 4 0 C4.66 2.31 5.32 4.62 6 7 C5.34 7 4.68 7 4 7 C4 7.99 4 8.98 4 10 C2.68 10 1.36 10 0 10 C-1.125 2.25 -1.125 2.25 0 0 Z " fill="#8CA1FF" transform="translate(168,120)"/>
<path d="M0 0 C0.99 0 1.98 0 3 0 C3 5.28 3 10.56 3 16 C2.01 16 1.02 16 0 16 C0 10.72 0 5.44 0 0 Z " fill="#627EFF" transform="translate(256,120)"/>
<path d="M0 0 C0.99 0 1.98 0 3 0 C3 5.28 3 10.56 3 16 C2.01 16 1.02 16 0 16 C0 10.72 0 5.44 0 0 Z " fill="#6681FF" transform="translate(231,120)"/>
<path d="M0 0 C0.99 0 1.98 0 3 0 C3 5.28 3 10.56 3 16 C2.01 16 1.02 16 0 16 C0 10.72 0 5.44 0 0 Z " fill="#627EFF" transform="translate(139,120)"/>
<path d="M0 0 C1.9375 1.375 1.9375 1.375 3 3 C3 3.66 3 4.32 3 5 C2.38511719 4.91621094 1.77023437 4.83242187 1.13671875 4.74609375 C0.32847656 4.64425781 -0.47976563 4.54242188 -1.3125 4.4375 C-2.11300781 4.33308594 -2.91351563 4.22867188 -3.73828125 4.12109375 C-6.16817116 3.85244822 -6.16817116 3.85244822 -9 5 C-9.33 6.98 -9.66 8.96 -10 11 C-10.33 11 -10.66 11 -11 11 C-11.48076923 4.75 -11.48076923 4.75 -9.4375 1.5625 C-6.09493717 -0.58016848 -3.89504791 -0.49573337 0 0 Z " fill="#6A84FF" transform="translate(274,120)"/>
<path d="M0 0 C1.9375 1.375 1.9375 1.375 3 3 C3 3.66 3 4.32 3 5 C2.38511719 4.91621094 1.77023438 4.83242187 1.13671875 4.74609375 C0.32847656 4.64425781 -0.47976562 4.54242188 -1.3125 4.4375 C-2.11300781 4.33308594 -2.91351563 4.22867188 -3.73828125 4.12109375 C-6.16817116 3.85244822 -6.16817116 3.85244822 -9 5 C-9.33 6.98 -9.66 8.96 -10 11 C-10.33 11 -10.66 11 -11 11 C-11.48076923 4.75 -11.48076923 4.75 -9.4375 1.5625 C-6.09493717 -0.58016848 -3.89504791 -0.49573337 0 0 Z " fill="#6A84FF" transform="translate(157,120)"/>
<path d="M0 0 C1.32 0.33 2.64 0.66 4 1 C4.33 1.99 4.66 2.98 5 4 C4.01 4.33 3.02 4.66 2 5 C2 8.3 2 11.6 2 15 C1.34 15 0.68 15 0 15 C0 10.05 0 5.1 0 0 Z " fill="#5472FF" transform="translate(239,120)"/>
<path d="M0 0 C-0.33 0.99 -0.66 1.98 -1 3 C-4.63 3 -8.26 3 -12 3 C-12 2.01 -12 1.02 -12 0 C-3.42857143 -1.28571429 -3.42857143 -1.28571429 0 0 Z " fill="#4F6FFF" transform="translate(65,141)"/>
<path d="M0 0 C1.09054688 0.02320313 2.18109375 0.04640625 3.3046875 0.0703125 C4.40039062 0.08835938 5.49609375 0.10640625 6.625 0.125 C7.46804687 0.14820313 8.31109375 0.17140625 9.1796875 0.1953125 C9.1796875 0.5253125 9.1796875 0.8553125 9.1796875 1.1953125 C6.5396875 1.1953125 3.8996875 1.1953125 1.1796875 1.1953125 C1.1796875 2.1853125 1.1796875 3.1753125 1.1796875 4.1953125 C4.1496875 4.1953125 7.1196875 4.1953125 10.1796875 4.1953125 C10.1796875 4.5253125 10.1796875 4.8553125 10.1796875 5.1953125 C-0.37839906 5.74884325 -0.37839906 5.74884325 -4.8203125 2.1953125 C-2.8203125 0.1953125 -2.8203125 0.1953125 0 0 Z " fill="#7F96FF" transform="translate(51.8203125,139.8046875)"/>
<path d="M0 0 C0.66 0 1.32 0 2 0 C2 4.62 2 9.24 2 14 C0.68 14 -0.64 14 -2 14 C-1.34 9.38 -0.68 4.76 0 0 Z " fill="#4E6EFF" transform="translate(249,121)"/>
<path d="M0 0 C1.32 0.33 2.64 0.66 4 1 C4 4.3 4 7.6 4 11 C3.01 11.33 2.02 11.66 1 12 C0.67 8.04 0.34 4.08 0 0 Z " fill="#4F6EFF" transform="translate(123,25)"/>
<path d="M0 0 C0.33 0.99 0.66 1.98 1 3 C2.98 3 4.96 3 7 3 C7 3.99 7 4.98 7 6 C5.02 6 3.04 6 1 6 C0.67 7.32 0.34 8.64 0 10 C-0.74926071 6.33694766 -1.2380014 3.57644848 0 0 Z " fill="#6A84FF" transform="translate(110,123)"/>
<path d="M0 0 C0.33 0 0.66 0 1 0 C1.12375 0.78375 1.2475 1.5675 1.375 2.375 C1.79117993 5.14057822 1.79117993 5.14057822 4 7 C3.64644564 9.26274788 3.02455574 10.95088852 2 13 C1.01 13 0.02 13 -1 13 C-0.67 8.71 -0.34 4.42 0 0 Z " fill="#6B85FF" transform="translate(123,29)"/>
<path d="M0 0 C1.32 0 2.64 0 4 0 C4 2.97 4 5.94 4 9 C3.67 9 3.34 9 3 9 C2.67 7.35 2.34 5.7 2 4 C1.67 5.65 1.34 7.3 1 9 C0.34 9 -0.32 9 -1 9 C-0.67 6.03 -0.34 3.06 0 0 Z " fill="#758DFF" transform="translate(5,104)"/>
<path d="M0 0 C1.916588 -0.02712153 3.8332873 -0.04645097 5.75 -0.0625 C7.35101563 -0.07990234 7.35101563 -0.07990234 8.984375 -0.09765625 C11.53368501 -0.01510087 13.57933591 0.25382442 16 1 C15.67 2.32 15.34 3.64 15 5 C13.68 4.67 12.36 4.34 11 4 C11 3.01 11 2.02 11 1 C7.37 1 3.74 1 0 1 C0 0.67 0 0.34 0 0 Z " fill="#748DFF" transform="translate(27,3)"/>
<path d="M0 0 C0.33 1.32 0.66 2.64 1 4 C-2.49234244 4.09978121 -5.59437148 3.77842938 -9 3 C-9 2.34 -9 1.68 -9 1 C-5.92677456 0.08941469 -3.19902639 -0.08886184 0 0 Z " fill="#E7ECFF" transform="translate(289,129)"/>
<path d="M0 0 C6.48292295 -0.3669579 6.48292295 -0.3669579 8.9375 1.375 C10 3 10 3 10 5 C5.95295336 4.13277572 2.95201883 2.95201883 0 0 Z " fill="#6B85FF" transform="translate(204,120)"/>
<path d="M0 0 C2.92528027 0.62684577 5.41225673 1.48304705 8 3 C8.33 3.66 8.66 4.32 9 5 C3.5 5.36666667 3.5 5.36666667 1.125 3.625 C0 2 0 2 0 0 Z " fill="#6E88FF" transform="translate(281,131)"/>
<path d="M0 0 C1.9451 2.91765 2.45276317 4.62537285 3 8 C1.68 8 0.36 8 -1 8 C-1.33 6.02 -1.66 4.04 -2 2 C-1.34 2 -0.68 2 0 2 C0 1.34 0 0.68 0 0 Z " fill="#7991FF" transform="translate(174,128)"/>
<path d="M0 0 C2.31 0 4.62 0 7 0 C7.33 1.32 7.66 2.64 8 4 C5.36 3.67 2.72 3.34 0 3 C0 2.01 0 1.02 0 0 Z " fill="#4F6EFF" transform="translate(17,96)"/>
<path d="M0 0 C1.98 0.495 1.98 0.495 4 1 C4.33 2.32 4.66 3.64 5 5 C3.35 4.67 1.7 4.34 0 4 C0 2.68 0 1.36 0 0 Z " fill="#E4E9FF" transform="translate(285,122)"/>
<path d="M0 0 C0.66 0 1.32 0 2 0 C1.67 0.99 1.34 1.98 1 3 C0.34 3 -0.32 3 -1 3 C-1.144375 3.78375 -1.28875 4.5675 -1.4375 5.375 C-2 8 -2 8 -3 10 C-3.66 10 -4.32 10 -5 10 C-3.85569823 6.12697862 -2.76679902 2.99736561 0 0 Z " fill="#6B85FF" transform="translate(52,43)"/>
<path d="M0 0 C2.64 0.33 5.28 0.66 8 1 C8 1.99 8 2.98 8 4 C5.69 4 3.38 4 1 4 C0.67 2.68 0.34 1.36 0 0 Z " fill="#6B85FF" transform="translate(13,96)"/>
<path d="M0 0 C0.94875 0.350625 1.8975 0.70125 2.875 1.0625 C0.20833333 1.72916667 -2.45833333 2.39583333 -5.125 3.0625 C-5.125 2.0725 -5.125 1.0825 -5.125 0.0625 C-3.125 -0.9375 -3.125 -0.9375 0 0 Z " fill="#627EFF" transform="translate(46.125,5.9375)"/>
</svg>
